<?xml version="1.0" encoding="utf-8"?>
<!-- Generator: Adobe Illustrator 24.3.0, SVG Export Plug-In . SVG Version: 6.00 Build 0)  -->
<svg version="1.1" xmlns="http://www.w3.org/2000/svg" xmlns:xlink="http://www.w3.org/1999/xlink" x="0px" y="0px"
	 viewBox="0 0 594.2 248.8" style="enable-background:new 0 0 594.2 248.8;" xml:space="preserve">
<g id="Layer_1">
</g>
<g id="Layer_2">
	<g>
		<path d="M67,48c-11.7-4.5-24.3,5.8-30.9,11.2c-6.8,5.6-11,11.6-13.4,15.5c-4.1,6-9,14.7-12.5,26.1c-4.7,15.4-4.4,28.7-3.6,37
			c0.2,2,1.6,13.9,11.9,21.4c6,4.3,12.1,5.1,15.1,5.3c4-0.1,10-0.8,16.4-3.7c13.7-6.2,19.8-18.1,21.6-21.9c0.4-1.1,0.2-2.2-0.5-2.7
			c-0.8-0.6-2.5-0.2-3.2,1.3c-10.3,17.4-27.8,23.7-38.5,18.2c-7.4-3.7-10.1-12.3-10.9-15.7c-1.7-6.7-3.1-13.9-1.3-25.3
			c3.9-24.5,16.2-45.8,31.2-56.2c6.5-4.6,10.6-5,13.5-4c4.8,1.6,6.9,7.2,7.6,9.2c2.7,7.1,0.8,13.7-0.3,17.3
			c-0.9,2.8-6.2,19.1-22.8,25.1c-8,2.9-15.2,2.1-19.3,1.3c-1-0.1-1.8,0.5-1.9,1.1c-0.1,0.7,0.6,1.8,1.9,1.8c2.5,0.8,5.7,1.5,9.4,1.9
			c4.8,0.4,8.8,0,11.8-0.6c5.8-1.1,9.7-3.8,11.7-5.1c9.4-6.1,14.1-14.9,16.1-19.4c1.2-1.9,6.2-10,4.2-20.5
			C80.3,65.5,77.6,52.1,67,48z"/>
		<path d="M188.5,163c-0.7-0.4-1.7-0.3-2.3,0.3c-0.4,1.5-1.5,4.4-4,7c-3.2,3.3-8.9,7.1-13.1,3.3c-2.6-2.3-2.4-7.9-2.7-11.1
			c-0.4-4.4-0.7-9-0.6-13.3c0.2-14.8,3.2-28.8,6.2-43.3c3-14.2,6.1-28.5,11.1-42.2c0.8-2.3-0.2-4.8-2.3-5.8c-2.3-1-5.1,0-6.1,2.5
			c-7,12-49.2,84-57.6,88.1c-4.3,2.1-8.9,1.2-9.9-4.1c-1.4-7.8-0.2-17.1,0.7-24.9c0.7-6.3,1.8-12.6,3.4-18.8
			c0.9-3.7,5-19.4,14.9-33.8c3.7-5.4,7.9-10.1,14.4-12.9c3.9-1.7,8.5-3.2,12.4-1.1c3.3,1.7,6.2,4.2,8.3,7.3c0.2,0.3,0.5,1.3,1.2,1.5
			c1,0.2,2.5-1.2,2.9-2.5c1.1-3.3-4.2-8.1-8-10.6c-3.4-2.3-7.5-3.5-12-3.4c-9.9,0.2-18.1,6.9-24.8,13.6
			c-15.5,15.4-25.5,35.9-28.1,57.6c-0.8,7.2-0.6,15,0,22.3c0.8,10.2,7.3,20.6,18.9,19.1c7.9-1,13.8-8.1,18.6-13.9
			c3.8-4.5,7-8.4,14.7-20.2c4.6-7,9.1-14.2,13.6-21.3l-2,14c-0.7,5.6-1.2,11.2-1.5,16.8c-0.5,11,0.1,22.1,3.1,32.7
			c1.9,6.7,4.8,14.8,12.6,16.1c5.1,0.9,10.2-1.5,13.4-5.4c3.5-4.2,4.7-8.6,5.1-10.9C189.7,164.6,189.3,163.5,188.5,163z"/>
		<path d="M345,182c5.1,0.9,10.2-1.5,13.4-5.4c3.5-4.2,4.7-8.6,5.1-10.9c0.4-1,0-2.2-0.8-2.7c-0.7-0.4-1.7-0.3-2.3,0.3
			c-0.4,1.5-1.5,4.4-4,7c-3.2,3.3-8.9,7.1-13.1,3.3c-2.6-2.3-2.4-7.9-2.7-11.1c-0.4-4.4-0.7-9-0.6-13.3c0.2-14.8,3.2-28.8,6.2-43.3
			c3-14.2,6.1-28.5,11.1-42.2c0.8-2.3-0.2-4.8-2.3-5.8c-2.3-1-5.1,0-6.1,2.5c-7,12-49.2,84-57.6,88.1c-4.3,2.1-8.9,1.2-9.9-4.1
			c-1.4-7.8-0.2-17.1,0.7-24.9c0.7-6.3,1.8-12.6,3.4-18.8c0.9-3.7,5-19.4,14.9-33.8c3.7-5.4,7.9-10.1,14.4-12.9
			c3.9-1.7,8.5-3.2,12.4-1.1c3.3,1.7,6.2,4.2,8.3,7.3c0.2,0.3,0.5,1.3,1.2,1.5c1,0.2,2.5-1.2,2.9-2.5c1.1-3.3-4.2-8.1-8-10.6
			c-3.4-2.3-7.5-3.5-12-3.4c-9.9,0.2-18.1,6.9-24.8,13.6c-15.5,15.4-25.5,35.9-28.1,57.6c-0.8,7.2-0.6,15,0,22.3
			c0.8,10.2,7.3,20.6,18.9,19.1c7.9-1,13.8-8.1,18.6-13.9c3.8-4.5,7-8.4,14.7-20.2c4.6-7,9.1-14.2,13.6-21.3l-2,14
			c-0.7,5.6-1.2,11.2-1.5,16.8c-0.5,11,0.1,22.1,3.1,32.7C334.3,172.5,337.2,180.7,345,182z"/>
		<path d="M220.8,119.6c0.4-3.9,0.9-8.1,1.5-12.7c0-0.2,0-0.3,0.1-0.5c2.6-19.1,6.9-36.2,11.8-51.1c9.9-1.3,19.8-2.6,29.8-3.9
			c1.1-0.1,2.7,0,3.7-0.5c1.4-0.6,2.2-2,2-3.3c-0.1-1.1-0.9-2.1-2-2.5c-10.2,0.6-20.4,1.2-30.6,1.8c3.2-9,6.6-17.1,9.9-24.2
			c0.2-0.9,0.5-3.4-0.7-4.1c-1.3-0.9-4.3,0.6-7.3,4.1c-6.5,7.6-10.5,15.9-13.7,24.9c-4.2,0.2-8.3,0.4-12.5,0.7
			c-3.9,0.3-8.4-0.3-8.5,4.8c0,8.5,12.6,4.5,18,3.7c-0.4,1.3-0.8,2.6-1.1,3.9c-2.2,7.9-4.8,15.9-6.2,24c-0.5,3-1,5.5-1.3,7.8
			c-1.6,10.8-3.1,21.6-3.9,32.5c-0.4,6.7-0.9,13.6-0.5,20.3c0.6,11.1-0.3,23,5.7,33.1c5,8.3,13.7,13.8,23.5,12.2
			c9.7-1.6,16.1-10.4,18-17.9c0.7-2.8-0.1-6.4-1.2-6.6c-1.3-0.3-2.4,4.5-5.9,8.8c-3.8,4.6-11.3,9.7-17.8,8.1
			c-7.8-1.9-11.6-12.1-12.5-19.3c-1.1-9-0.1-18.4,0.4-27.5C219.6,134.8,220,127.5,220.8,119.6z"/>
		<path d="M404.8,189.8c2.5,0.1,7.1-0.2,11.9-2.8c9.3-5,11.9-14.6,12.3-16.4c0.8-2.4,0.5-4.5-0.3-4.9c-0.8-0.4-2.7,0.9-4,3.4
			c-2.5,5.1-4.9,9.8-10.9,11.7c-3.9,1.2-7.5,0.3-8,0.2c-5.9-2.1-8.3-9.1-9.2-11.9C389,147,395,85.6,407.1,53.1c5.2-14,7.3-19,7.3-19
			c2.2-5.2,3.4-11,6.5-15.8c0.2-0.3,0.9-2.4,1.9-5.1c0.8-2.3,1.1-5.7-1.2-6.4c-1.3-0.4-2.9,0.6-3.4,1
			c-19.4,13.3-32.2,88.3-32.2,88.3c-2.9,17.7-4.8,36-3.5,54C383.4,164.3,385.4,189.3,404.8,189.8z"/>
		<path d="M464.4,189.8c2.5,0.1,7.1-0.2,11.9-2.8c9.3-5,11.9-14.6,12.3-16.4c0.8-2.4,0.5-4.5-0.3-4.9c-0.8-0.4-2.7,0.9-4,3.4
			c-2.5,5.1-4.9,9.8-10.9,11.7c-3.9,1.2-7.5,0.3-8,0.2c-5.9-2.1-8.3-9.1-9.2-11.9c-7.6-22.2-1.5-83.6,10.5-116.1
			c5.2-14,7.3-19,7.3-19c2.2-5.2,3.4-11,6.5-15.8c0.2-0.3,0.9-2.4,1.9-5.1c0.8-2.3,1.1-5.7-1.2-6.4c-1.3-0.4-2.9,0.6-3.4,1
			c-19.4,13.3-32.2,88.3-32.2,88.3c-2.9,17.7-4.8,36-3.5,54C443,164.3,445,189.3,464.4,189.8z"/>
		<path d="M584,53.5c-3.5-1.1-10.7,8-13.6,13.1c-3.7,6.6-6.9,13.5-10.7,20.1c-10,17-20.1,34.3-32.1,50c-2.5,3.3-11,16.2-16.8,13.8
			c-4-1.7-3.9-13.1,0.3-34.1c1.8-8.6,4.1-17.9,7-27.6c2.9-9.8,6.1-18.9,9.3-27.2c1.8-3.9,2.5-7.6,1.1-8.7
			c-7.3-6-17.6,17.1-19.3,20.9c-4.9,10.7-8.5,22-10.4,33.6c-2.8,16.8-1.8,31.2-0.3,41.3c7.4,14.7,22.6,7.5,31.6-1
			c7.9-7.6,15.1-16,21.3-25.1c2.6-3.8,5.1-7.7,7.3-11.8c1.3-2.4,5.2-7.3,5.2-10c0,10.7-1.2,66-43,103c-14,12.4-31.4,22.5-49.8,26.3
			c-42.6,8.7-91.3,0.4-126.2-26.3c-2.2-1.7-5.2-1.3-6.4,0.2c-1.4,1.8-0.9,5.3,2,6.9c3.9,2.1,7.6,4.7,11.5,6.8
			c0.4,0.2,0.8,0.4,1.2,0.6c39.9,21.5,90.7,33.3,134.7,17.8c24.4-8.6,39.2-23.8,47.9-32.4c37-36.7,44.2-81,48.9-110.6
			C584.8,90.8,590.3,55.5,584,53.5z"/>
	</g>
</g>
</svg>
